<svg xmlns="http://www.w3.org/2000/svg" viewBox="0 0 64 64" fill="none">
  <defs>
    <linearGradient id="arrowA" x1="12" y1="11" x2="54" y2="53" gradientUnits="userSpaceOnUse">
      <stop stop-color="#34D399"/>
      <stop offset="0.52" stop-color="#0D9488"/>
      <stop offset="1" stop-color="#064E3B"/>
    </linearGradient>
    <linearGradient id="arrowB" x1="52" y1="7" x2="10" y2="57" gradientUnits="userSpaceOnUse">
      <stop stop-color="#10B981"/>
      <stop offset="0.55" stop-color="#0F766E"/>
      <stop offset="1" stop-color="#34D399"/>
    </linearGradient>
    <linearGradient id="imageFill" x1="21" y1="25" x2="43" y2="43" gradientUnits="userSpaceOnUse">
      <stop stop-color="#F8FAFC"/>
      <stop offset="1" stop-color="#CCFBF1"/>
    </linearGradient>
  </defs>
  <rect x="3" y="3" width="58" height="58" rx="14" fill="#F8FAFC"/>
  <path d="M50.2 13.6C42.3 5.9 29.9 4.3 20.2 10.6C12 15.9 7.7 25.3 8.7 34.4C9 37.3 10 40.3 11.6 43.1L15.9 36.7C13.7 28.7 16.9 20.1 24 15.5C30.8 11.1 39.6 11.5 46.1 16.6L39.1 23.6H59V3.8L50.2 13.6Z" fill="url(#arrowA)"/>
  <path d="M13.8 50.4C21.8 58.2 34.1 59.7 43.9 53.4C52.1 48.1 56.3 38.7 55.3 29.6C55 26.7 54 23.7 52.4 20.9L48.1 27.3C50.3 35.3 47.1 43.9 40 48.5C33.2 52.9 24.4 52.5 17.9 47.4L24.9 40.4H5V60.2L13.8 50.4Z" fill="url(#arrowB)"/>
  <rect x="18" y="20" width="28" height="24" rx="4.5" fill="#ECFDF5" stroke="#065F46" stroke-width="3.5"/>
  <circle cx="26.5" cy="28" r="3.1" fill="#065F46"/>
  <path d="M21.8 39.4L29.5 31.7L35.3 38L40.1 32.9L44.2 37.5V40.6H21.8V39.4Z" fill="url(#imageFill)"/>
</svg>
